# xmcd
#
# Track frame offsets:
#	150
#	18123
#	36233
#	55709
#	72389
#	85068
#	106890
#	124939
#	138260
#	157976
#	177461
#	194016
#	210039
#	225824
#	243304
#	261625
#	276740
#
# Disc length: 3885
#
# Revision: 4
# Processed by: cddbd v1.5.1PL0 Copyright (c) Steve Scherf et al.
# Submitted via: CDex 1.30Release
# Normalized: r2:TDELIM( - ),TSWAP
#
DISCID=eb0f2b11
DTITLE=Various Artist - Celebrate 2000 [CD2]
DYEAR=1900
DGENRE=Blues
TTITLE0=B52's - Love Shak
TTITLE1=Robert Miles Feat, Maria Naylor - One and One
TTITLE2=Aretha Franklin - Freeway Of Love
TTITLE3=Wham - Young Guns (Go For It)
TTITLE4=Madness - House Of Fun
TTITLE5=Laura Branigan - Gloria
TTITLE6=The Knack - My Sharona
TTITLE7=Arrow - Hot Hot Hot
TTITLE8=Miami Sound Machine - Dr. Beat
TTITLE9=Deniece Williams - Let's Hear It For The Boy
TTITLE10=Taylor Dayne - Tell It To My Heart
TTITLE11=Rick Astiley - Never Gonna Give You Up
TTITLE12=Cydi Lauper - Girls Just Wanna Have Fun
TTITLE13=Daryl Hall and John Oats - Kiss On My List
TTITLE14=Hot Chocolate - You Sexy Thing
TTITLE15=Adam and The Ants - Goody Two Shoes
TTITLE16=Joey Scarbury - Believe It Or Not (American Hero)
EXTD=ID3G:   0
EXTT0=
EXTT1=
EXTT2=
EXTT3=
EXTT4=
EXTT5=
EXTT6=
EXTT7=
EXTT8=
EXTT9=
EXTT10=
EXTT11=
EXTT12=
EXTT13=
EXTT14=
EXTT15=
EXTT16=
PLAYORDER=
